<svg xmlns="http://www.w3.org/2000/svg" width="182.25" height="35" viewBox="0 0 182.25 35"><rect class="svg__rect" x="0" y="0" width="66.14" height="35" fill="#000000"/><rect class="svg__rect" x="64.14" y="0" width="118.11" height="35" fill="#A7BFC1"/><path class="svg__text" d="M19.80 22L14.22 22L14.22 13.47L19.75 13.47L19.75 14.66L15.70 14.66L15.70 17.02L19.20 17.02L19.20 18.19L15.70 18.19L15.70 20.82L19.80 20.82L19.80 22ZM26.45 22L23.99 22L23.99 13.47L26.51 13.47Q27.64 13.47 28.52 13.97Q29.39 14.48 29.87 15.40Q30.35 16.33 30.35 17.52L30.35 17.52L30.35 17.95Q30.35 19.16 29.87 20.08Q29.39 21.00 28.49 21.50Q27.60 22 26.45 22L26.45 22ZM25.47 14.66L25.47 20.82L26.44 20.82Q27.61 20.82 28.23 20.09Q28.85 19.36 28.87 17.99L28.87 17.99L28.87 17.52Q28.87 16.13 28.26 15.40Q27.66 14.66 26.51 14.66L26.51 14.66L25.47 14.66ZM34.57 18.13L34.57 18.13L34.57 17.46Q34.57 15.53 35.50 14.44Q36.42 13.35 38.08 13.35L38.08 13.35Q39.51 13.35 40.34 14.05Q41.18 14.76 41.35 16.08L41.35 16.08L39.90 16.08Q39.65 14.54 38.11 14.54L38.11 14.54Q37.12 14.54 36.60 15.26Q36.08 15.98 36.06 17.37L36.06 17.37L36.06 18.02Q36.06 19.40 36.64 20.17Q37.23 20.93 38.26 20.93L38.26 20.93Q39.40 20.93 39.88 20.42L39.88 20.42L39.88 18.75L38.12 18.75L38.12 17.62L41.36 17.62L41.36 20.89Q40.89 21.50 40.07 21.81Q39.25 22.12 38.21 22.12L38.21 22.12Q37.14 22.12 36.31 21.63Q35.49 21.14 35.04 20.24Q34.59 19.33 34.57 18.13ZM48.01 18.86L45.15 13.47L46.80 13.47L48.76 17.51L50.72 13.47L52.36 13.47L49.50 18.86L49.50 22L48.01 22L48.01 18.86Z" fill="#FFFFFF"/><path class="svg__text" d="M80.71 22L78.33 22L78.33 13.60L82.17 13.60Q83.31 13.60 84.15 13.98Q84.99 14.35 85.45 15.06Q85.90 15.76 85.90 16.71L85.90 16.71Q85.90 17.62 85.48 18.30Q85.05 18.98 84.26 19.36L84.26 19.36L86.07 22L83.53 22L82.00 19.77L80.71 19.77L80.71 22ZM80.71 15.47L80.71 17.93L82.03 17.93Q82.76 17.93 83.13 17.61Q83.50 17.29 83.50 16.71L83.50 16.71Q83.50 16.12 83.13 15.79Q82.76 15.47 82.03 15.47L82.03 15.47L80.71 15.47ZM90.26 17.80L90.26 17.80Q90.26 16.55 90.87 15.55Q91.47 14.56 92.53 14.00Q93.60 13.43 94.93 13.43L94.93 13.43Q96.26 13.43 97.32 14.00Q98.38 14.56 98.99 15.55Q99.60 16.55 99.60 17.80L99.60 17.80Q99.60 19.05 98.99 20.04Q98.38 21.04 97.32 21.60Q96.26 22.17 94.93 22.17L94.93 22.17Q93.60 22.17 92.53 21.60Q91.47 21.04 90.87 20.04Q90.26 19.05 90.26 17.80ZM92.66 17.80L92.66 17.80Q92.66 18.51 92.96 19.05Q93.26 19.60 93.78 19.90Q94.29 20.20 94.93 20.20L94.93 20.20Q95.57 20.20 96.08 19.90Q96.60 19.60 96.90 19.05Q97.20 18.51 97.20 17.80L97.20 17.80Q97.20 17.09 96.90 16.54Q96.60 16 96.08 15.70Q95.57 15.40 94.93 15.40L94.93 15.40Q94.29 15.40 93.78 15.70Q93.26 16 92.96 16.54Q92.66 17.09 92.66 17.80ZM110.71 22L104.33 22L104.33 13.60L106.70 13.60L106.70 20.11L110.71 20.11L110.71 22ZM121.87 22L115.13 22L115.13 13.60L121.72 13.60L121.72 15.44L117.49 15.44L117.49 16.85L121.22 16.85L121.22 18.63L117.49 18.63L117.49 20.17L121.87 20.17L121.87 22ZM129.06 22L126.68 22L126.68 13.60L130.52 13.60Q131.66 13.60 132.50 13.98Q133.34 14.35 133.80 15.06Q134.26 15.76 134.26 16.71L134.26 16.71Q134.26 17.66 133.80 18.35Q133.34 19.05 132.50 19.42Q131.66 19.80 130.52 19.80L130.52 19.80L129.06 19.80L129.06 22ZM129.06 15.47L129.06 17.93L130.38 17.93Q131.11 17.93 131.48 17.61Q131.85 17.29 131.85 16.71L131.85 16.71Q131.85 16.12 131.48 15.80Q131.11 15.47 130.38 15.47L130.38 15.47L129.06 15.47ZM145.39 22L139.01 22L139.01 13.60L141.39 13.60L141.39 20.11L145.39 20.11L145.39 22ZM151.23 22L148.80 22L152.51 13.60L154.86 13.60L158.57 22L156.11 22L155.44 20.37L151.89 20.37L151.23 22ZM153.67 15.93L152.58 18.61L154.75 18.61L153.67 15.93ZM164.85 18.95L161.65 13.60L164.16 13.60L166.15 16.94L168.14 13.60L170.44 13.60L167.23 18.99L167.23 22L164.85 22L164.85 18.95Z" fill="#FFFFFF" x="77.14"/></svg>