<svg xmlns="http://www.w3.org/2000/svg" width="258.78" height="35" viewBox="0 0 258.78 35"><rect class="svg__rect" x="0" y="0" width="90.96" height="35" fill="#D61616"/><rect class="svg__rect" x="88.96" y="0" width="169.82" height="35" fill="#F97272"/><path class="svg__text" d="M13.95 18.00L13.95 18.00L13.95 17.52Q13.95 16.28 14.39 15.32Q14.83 14.37 15.64 13.86Q16.44 13.35 17.49 13.35Q18.53 13.35 19.34 13.85Q20.14 14.35 20.58 15.29Q21.02 16.23 21.03 17.48L21.03 17.48L21.03 17.96Q21.03 19.21 20.59 20.16Q20.16 21.10 19.35 21.61Q18.55 22.12 17.50 22.12L17.50 22.12Q16.46 22.12 15.65 21.61Q14.84 21.10 14.40 20.17Q13.95 19.23 13.95 18.00ZM15.43 17.46L15.43 17.96Q15.43 19.36 15.98 20.13Q16.53 20.90 17.50 20.90L17.50 20.90Q18.48 20.90 19.01 20.15Q19.54 19.40 19.54 17.96L19.54 17.96L19.54 17.51Q19.54 16.09 19.01 15.34Q18.47 14.58 17.49 14.58L17.49 14.58Q16.53 14.58 15.98 15.33Q15.44 16.09 15.43 17.46L15.43 17.46ZM26.97 22L25.49 22L25.49 13.47L26.97 13.47L26.97 17.02L30.79 17.02L30.79 13.47L32.26 13.47L32.26 22L30.79 22L30.79 18.21L26.97 18.21L26.97 22ZM42.55 19.42L42.55 19.42L44.03 19.42Q44.03 20.15 44.51 20.55Q44.99 20.95 45.89 20.95L45.89 20.95Q46.66 20.95 47.05 20.63Q47.44 20.32 47.44 19.80L47.44 19.80Q47.44 19.24 47.04 18.94Q46.65 18.63 45.62 18.32Q44.59 18.01 43.98 17.63L43.98 17.63Q42.81 16.90 42.81 15.72L42.81 15.72Q42.81 14.69 43.65 14.02Q44.49 13.35 45.83 13.35L45.83 13.35Q46.73 13.35 47.42 13.68Q48.12 14.01 48.52 14.61Q48.92 15.22 48.92 15.96L48.92 15.96L47.44 15.96Q47.44 15.29 47.02 14.91Q46.60 14.54 45.82 14.54L45.82 14.54Q45.10 14.54 44.69 14.85Q44.29 15.16 44.29 15.71L44.29 15.71Q44.29 16.18 44.73 16.50Q45.16 16.81 46.16 17.10Q47.15 17.40 47.76 17.78Q48.36 18.16 48.64 18.65Q48.92 19.13 48.92 19.79L48.92 19.79Q48.92 20.86 48.10 21.49Q47.29 22.12 45.89 22.12L45.89 22.12Q44.96 22.12 44.18 21.77Q43.41 21.43 42.98 20.83Q42.55 20.22 42.55 19.42ZM54.69 22L53.21 22L53.21 13.47L54.69 13.47L54.69 17.02L58.51 17.02L58.51 13.47L59.98 13.47L59.98 22L58.51 22L58.51 18.21L54.69 18.21L54.69 22ZM66.29 22L64.81 22L64.81 13.47L66.29 13.47L66.29 22ZM72.78 14.66L70.14 14.66L70.14 13.47L76.91 13.47L76.91 14.66L74.25 14.66L74.25 22L72.78 22L72.78 14.66Z" fill="#FFFFFF"/><path class="svg__text" d="M104.94 15.48L102.36 15.48L102.36 13.60L109.88 13.60L109.88 15.48L107.31 15.48L107.31 22L104.94 22L104.94 15.48ZM116.63 22L114.25 22L114.25 13.60L116.63 13.60L116.63 16.76L119.87 16.76L119.87 13.60L122.24 13.60L122.24 22L119.87 22L119.87 18.72L116.63 18.72L116.63 22ZM134.15 22L127.41 22L127.41 13.60L134.00 13.60L134.00 15.44L129.76 15.44L129.76 16.85L133.49 16.85L133.49 18.63L129.76 18.63L129.76 20.17L134.15 20.17L134.15 22ZM145.34 21.24L145.34 21.24L146.12 19.49Q146.68 19.86 147.43 20.09Q148.17 20.32 148.89 20.32L148.89 20.32Q150.26 20.32 150.26 19.64L150.26 19.64Q150.26 19.28 149.87 19.11Q149.48 18.93 148.62 18.74L148.62 18.74Q147.67 18.53 147.03 18.30Q146.40 18.06 145.94 17.55Q145.49 17.03 145.49 16.16L145.49 16.16Q145.49 15.39 145.91 14.77Q146.33 14.15 147.16 13.79Q148.00 13.43 149.20 13.43L149.20 13.43Q150.03 13.43 150.83 13.62Q151.64 13.80 152.26 14.17L152.26 14.17L151.52 15.93Q150.32 15.28 149.19 15.28L149.19 15.28Q148.48 15.28 148.16 15.49Q147.84 15.70 147.84 16.04L147.84 16.04Q147.84 16.37 148.22 16.54Q148.60 16.71 149.45 16.89L149.45 16.89Q150.42 17.10 151.05 17.33Q151.68 17.56 152.14 18.07Q152.60 18.58 152.60 19.46L152.60 19.46Q152.60 20.21 152.18 20.83Q151.76 21.44 150.92 21.80Q150.08 22.17 148.88 22.17L148.88 22.17Q147.86 22.17 146.90 21.92Q145.94 21.67 145.34 21.24ZM159.30 18.95L156.10 13.60L158.61 13.60L160.60 16.94L162.59 13.60L164.89 13.60L161.68 18.99L161.68 22L159.30 22L159.30 18.95ZM171.31 22L168.98 22L168.98 13.60L170.93 13.60L174.64 18.07L174.64 13.60L176.97 13.60L176.97 22L175.02 22L171.31 17.52L171.31 22ZM186.10 22L182.13 22L182.13 13.60L186.10 13.60Q187.49 13.60 188.55 14.12Q189.62 14.63 190.21 15.58Q190.80 16.53 190.80 17.80L190.80 17.80Q190.80 19.07 190.21 20.02Q189.62 20.97 188.55 21.48Q187.49 22 186.10 22L186.10 22ZM184.51 15.50L184.51 20.10L186.01 20.10Q187.09 20.10 187.74 19.49Q188.40 18.88 188.40 17.80L188.40 17.80Q188.40 16.72 187.74 16.11Q187.09 15.50 186.01 15.50L186.01 15.50L184.51 15.50ZM197.91 22L195.53 22L195.53 13.60L197.91 13.60L197.91 22ZM202.65 17.80L202.65 17.80Q202.65 16.54 203.25 15.54Q203.85 14.55 204.90 13.99Q205.95 13.43 207.27 13.43L207.27 13.43Q208.42 13.43 209.35 13.84Q210.27 14.25 210.88 15.02L210.88 15.02L209.37 16.39Q208.56 15.40 207.39 15.40L207.39 15.40Q206.71 15.40 206.17 15.70Q205.64 16 205.34 16.54Q205.05 17.09 205.05 17.80L205.05 17.80Q205.05 18.51 205.34 19.05Q205.64 19.60 206.17 19.90Q206.71 20.20 207.39 20.20L207.39 20.20Q208.56 20.20 209.37 19.22L209.37 19.22L210.88 20.58Q210.27 21.35 209.35 21.76Q208.42 22.17 207.27 22.17L207.27 22.17Q205.95 22.17 204.90 21.61Q203.85 21.05 203.25 20.05Q202.65 19.06 202.65 17.80ZM216.84 22L214.41 22L218.12 13.60L220.46 13.60L224.18 22L221.71 22L221.05 20.37L217.50 20.37L216.84 22ZM219.27 15.93L218.19 18.61L220.35 18.61L219.27 15.93ZM230.13 15.48L227.54 15.48L227.54 13.60L235.07 13.60L235.07 15.48L232.50 15.48L232.50 22L230.13 22L230.13 15.48ZM246.18 22L239.44 22L239.44 13.60L246.03 13.60L246.03 15.44L241.79 15.44L241.79 16.85L245.52 16.85L245.52 18.63L241.79 18.63L241.79 20.17L246.18 20.17L246.18 22Z" fill="#FFFFFF" x="101.96"/></svg>